<svg width="99" height="99" viewBox="0 0 99 99" fill="none" xmlns="http://www.w3.org/2000/svg">
<circle cx="49.5" cy="49.5" r="49.5" fill="#1929FF"/>
<path d="M62.9756 49.5C62.9756 47.29 62.7854 45.145 62.5317 43H73.2488C73.7561 45.08 74.0732 47.2575 74.0732 49.5C74.0732 50.7025 73.9781 51.8725 73.8195 53.01C76.0073 53.335 78.0366 54.05 79.9073 55.09C80.2244 53.27 80.4146 51.4175 80.4146 49.5C80.4146 31.625 66.1463 17 48.7073 17C31.1732 17 17 31.625 17 49.5C17 67.375 31.2683 82 48.7073 82C50.578 82 52.3854 81.805 54.161 81.48C52.655 78.649 51.8698 75.4745 51.878 72.25C51.878 71.3075 51.9732 70.3975 52.1 69.4875C51.0854 71.535 49.9756 73.5175 48.7073 75.37C46.0756 71.47 43.9512 67.1475 42.6512 62.5H54.4463C56.3507 59.1082 59.2142 56.3884 62.6585 54.7C62.8488 52.9775 62.9756 51.255 62.9756 49.5ZM48.7073 23.5975C51.339 27.4975 53.4634 31.8525 54.7634 36.5H42.6512C43.9512 31.8525 46.0756 27.4975 48.7073 23.5975ZM24.1659 56C23.6585 53.92 23.3415 51.7425 23.3415 49.5C23.3415 47.2575 23.6585 45.08 24.1659 43H34.8829C34.6293 45.145 34.439 47.29 34.439 49.5C34.439 51.71 34.6293 53.855 34.8829 56H24.1659ZM26.7659 62.5H36.0244C37.1341 66.5625 38.561 70.4625 40.4634 74.07C34.6883 72.0279 29.8251 67.9201 26.7659 62.5ZM36.0244 36.5H26.7659C29.8061 31.0634 34.6762 26.9498 40.4634 24.93C38.561 28.5375 37.1341 32.4375 36.0244 36.5ZM56.1268 56H41.2878C40.9707 53.855 40.7805 51.71 40.7805 49.5C40.7805 47.29 40.9707 45.1125 41.2878 43H56.1268C56.4122 45.1125 56.6341 47.29 56.6341 49.5C56.6341 51.71 56.4122 53.855 56.1268 56ZM56.9195 24.93C62.7537 26.9775 67.6049 31.105 70.6488 36.5H61.2951C60.3028 32.4747 58.8333 28.5892 56.9195 24.93ZM82 66.5625L66.939 82L58.2195 72.25L61.8976 68.48L66.939 73.6475L78.322 61.98L82 66.5625Z" fill="white"/>
</svg>
