<svg width="99" height="99" viewBox="0 0 99 99" fill="none" xmlns="http://www.w3.org/2000/svg">
<circle cx="49.5" cy="49.5" r="49.5" fill="#1929FF"/>
<path d="M30.3495 22.9091V31.7727H36.2996V25.8636H66.0499V73.1364H36.2996V67.2273H30.3495V76.0909C30.3495 79.3409 33.027 82 36.2996 82H66.0499C69.3225 82 72 79.3409 72 76.0909V22.9091C72 19.6591 69.3225 17 66.0499 17H36.2996C33.027 17 30.3495 19.6591 30.3495 22.9091ZM37.7871 59.8409C38.6499 59.4864 39.4234 58.9841 40.1671 58.4227L40.1076 58.5114L43.1124 59.6636C43.7967 59.9295 44.5702 59.6636 44.9272 59.0136L47.4262 54.7C47.7832 54.0795 47.6345 53.2523 47.0692 52.8091L44.5404 50.8L44.4809 50.8886C44.5404 50.4159 44.6297 49.9432 44.6297 49.4705C44.6297 48.9977 44.5404 48.525 44.4809 48.0523L44.5404 48.1409L47.0692 46.1318C47.6345 45.6886 47.7832 44.8614 47.4262 44.2409L44.9272 39.9273C44.7522 39.622 44.4733 39.3888 44.1406 39.2696C43.8079 39.1505 43.4433 39.1532 43.1124 39.2773L40.1076 40.4295L40.1671 40.5182C39.4234 40.0159 38.6499 39.5136 37.7871 39.1591L37.2813 35.9682C37.2321 35.6206 37.0569 35.3027 36.7885 35.0742C36.5201 34.8458 36.177 34.7224 35.8236 34.7273H30.8255C30.0818 34.7273 29.457 35.2591 29.3677 35.9682L28.862 39.1591C27.9992 39.5136 27.2257 40.0159 26.482 40.5773L26.5415 40.4886L23.5069 39.3364C22.8227 39.0705 22.0492 39.3364 21.6922 39.9864L19.1931 44.3C18.8361 44.9205 18.9849 45.7477 19.5501 46.1909L22.0789 48.2L22.1384 48.1114C22.0789 48.5545 21.9897 49.0273 21.9897 49.5C21.9897 49.9727 22.0789 50.4455 22.1384 50.9182L22.0789 50.8295L19.5501 52.8386C18.9849 53.2818 18.8361 54.1091 19.1931 54.7295L21.6922 59.0432C22.0492 59.6636 22.8227 59.9591 23.5069 59.6932L26.5117 58.5409L26.482 58.4227C27.2257 58.9841 27.9992 59.4864 28.862 59.8409L29.3677 63.0023C29.457 63.7409 30.0818 64.2727 30.8255 64.2727H35.8236C36.5673 64.2727 37.1921 63.7409 37.2813 63.0318L37.7871 59.8409ZM27.3745 49.5C27.3745 46.25 30.052 43.5909 33.3245 43.5909C36.5971 43.5909 39.2746 46.25 39.2746 49.5C39.2746 52.75 36.5971 55.4091 33.3245 55.4091C30.052 55.4091 27.3745 52.75 27.3745 49.5Z" fill="white"/>
</svg>
