<svg width="99" height="99" viewBox="0 0 99 99" fill="none" xmlns="http://www.w3.org/2000/svg">
<circle cx="49.5" cy="49.5" r="49.5" fill="#1929FF"/>
<path d="M49.5 17L23 26.2857V54.1429C23 69.5296 34.8629 82 49.5 82C64.1371 82 76 69.5296 76 54.1429V26.2857L49.5 17ZM71.0312 54.1429C71.0312 66.6423 61.3905 76.7768 49.5 76.7768C37.6095 76.7768 27.9688 66.6423 27.9688 54.1429V30.2031L49.5 22.2232L71.0312 30.2031V54.1429Z" fill="white"/>
<path d="M40.2802 46.8231C40.0499 46.5799 39.7762 46.387 39.4748 46.2553C39.1734 46.1237 38.8503 46.0559 38.5239 46.0559C38.1975 46.0559 37.8743 46.1237 37.5729 46.2553C37.2715 46.387 36.9978 46.5799 36.7676 46.8231C36.5362 47.0652 36.3527 47.3529 36.2274 47.6697C36.1022 47.9865 36.0377 48.3263 36.0377 48.6694C36.0377 49.0125 36.1022 49.3522 36.2274 49.669C36.3527 49.9859 36.5362 50.2736 36.7676 50.5156L45.6975 59.9029L45.8424 60.0552C46.0602 60.2846 46.3189 60.4666 46.6037 60.5908C46.8885 60.715 47.1938 60.7789 47.5021 60.7789C47.8104 60.7789 48.1157 60.715 48.4005 60.5908C48.6853 60.4666 48.944 60.2846 49.1618 60.0552L64.5856 43.8415C64.8039 43.6125 64.977 43.3406 65.0951 43.0412C65.2132 42.7418 65.274 42.4209 65.274 42.0968C65.274 41.7727 65.2132 41.4518 65.0951 41.1524C64.977 40.853 64.8039 40.5811 64.5856 40.3521L64.3924 40.149C64.1746 39.9196 63.9159 39.7376 63.6311 39.6134C63.3463 39.4893 63.041 39.4254 62.7327 39.4254C62.4244 39.4254 62.1191 39.4893 61.8343 39.6134C61.5495 39.7376 61.2908 39.9196 61.073 40.149L47.4987 54.4113L40.2802 46.8231Z" fill="white"/>
</svg>
