<svg width="99" height="99" viewBox="0 0 99 99" fill="none" xmlns="http://www.w3.org/2000/svg">
<circle cx="49.5" cy="49.5" r="49.5" fill="#1929FF"/>
<path d="M49.5 63.4286C46.7452 63.4286 44.0522 62.6117 41.7617 61.0812C39.4711 59.5507 37.6859 57.3753 36.6317 54.8302C35.5774 52.2851 35.3016 49.4845 35.8391 46.7827C36.3765 44.0808 37.7031 41.5989 39.651 39.651C41.5989 37.7031 44.0808 36.3765 46.7827 35.8391C49.4845 35.3016 52.2851 35.5774 54.8302 36.6317C57.3753 37.6859 59.5507 39.4711 61.0812 41.7617C62.6117 44.0522 63.4286 46.7452 63.4286 49.5C63.4243 53.1928 61.9554 56.733 59.3442 59.3442C56.733 61.9554 53.1928 63.4243 49.5 63.4286ZM49.5 40.2143C47.6634 40.2143 45.8681 40.7589 44.3411 41.7792C42.8141 42.7995 41.6239 44.2498 40.9211 45.9465C40.2183 47.6432 40.0344 49.5103 40.3927 51.3115C40.751 53.1128 41.6354 54.7673 42.934 56.066C44.2326 57.3646 45.8872 58.249 47.6884 58.6073C49.4897 58.9656 51.3567 58.7817 53.0535 58.0789C54.7502 57.3761 56.2004 56.1859 57.2208 54.6588C58.2411 53.1318 58.7857 51.3365 58.7857 49.5C58.7826 47.0382 57.8033 44.6781 56.0626 42.9374C54.3218 41.1966 51.9618 40.2173 49.5 40.2143Z" fill="white"/>
<path d="M49.5 72.7143C46.2344 72.7118 43.006 72.0216 40.025 70.6885C37.044 69.3554 34.3772 67.4093 32.1984 64.9769L35.6573 61.8802C37.7224 64.1893 40.3324 65.9452 43.2495 66.9879C46.1667 68.0305 49.2983 68.3269 52.3593 67.85C55.4202 67.3731 58.3133 66.1381 60.775 64.2574C63.2366 62.3766 65.1887 59.91 66.4535 57.0821C67.7182 54.2541 68.2555 51.1547 68.0163 48.0661C67.7771 44.9774 66.7691 41.9977 65.084 39.3982C63.3989 36.7987 61.0903 34.662 58.3684 33.1827C55.6466 31.7034 52.5979 30.9285 49.5 30.9286V26.2857C55.6568 26.2857 61.5614 28.7315 65.9149 33.085C70.2685 37.4385 72.7142 43.3432 72.7142 49.5C72.7142 55.6568 70.2685 61.5614 65.9149 65.915C61.5614 70.2685 55.6568 72.7143 49.5 72.7143Z" fill="white"/>
<path d="M49.5 82C43.0721 82 36.7886 80.0939 31.444 76.5228C26.0994 72.9516 21.9338 67.8758 19.4739 61.9372C17.0141 55.9986 16.3705 49.464 17.6245 43.1596C18.8785 36.8552 21.9738 31.0642 26.519 26.519C31.0642 21.9738 36.8552 18.8785 43.1596 17.6245C49.464 16.3705 55.9986 17.0141 61.9372 19.4739C67.8758 21.9338 72.9516 26.0994 76.5228 31.444C80.0939 36.7886 82 43.0721 82 49.5C81.9902 58.1165 78.5629 66.3773 72.4701 72.4701C66.3773 78.5629 58.1165 81.9902 49.5 82ZM49.5 21.6429C43.9904 21.6429 38.6045 23.2767 34.0234 26.3376C29.4423 29.3986 25.8718 33.7493 23.7634 38.8395C21.6549 43.9298 21.1033 49.5309 22.1781 54.9347C23.253 60.3384 25.9061 65.3021 29.802 69.198C33.6979 73.0939 38.6616 75.747 44.0654 76.8219C49.4691 77.8967 55.0702 77.3451 60.1605 75.2366C65.2507 73.1282 69.6014 69.5577 72.6624 64.9766C75.7233 60.3955 77.3571 55.0096 77.3571 49.5C77.3485 42.1145 74.4108 35.0339 69.1885 29.8115C63.9661 24.5892 56.8855 21.6515 49.5 21.6429Z" fill="white"/>
</svg>
