<svg width="99" height="99" viewBox="0 0 99 99" fill="none" xmlns="http://www.w3.org/2000/svg">
<circle cx="49.5" cy="49.5" r="49.5" fill="#1929FF"/>
<path d="M40.607 82L39.3134 71.6C38.6128 71.3292 37.9531 71.0042 37.3343 70.625C36.7134 70.2458 36.1066 69.8396 35.5137 69.4062L25.893 73.4688L17 58.0312L25.3271 51.6938C25.2732 51.3146 25.2463 50.9484 25.2463 50.5952V48.4015C25.2463 48.0505 25.2732 47.6854 25.3271 47.3062L17 40.9688L25.893 25.5312L35.5137 29.5938C36.1066 29.1604 36.7264 28.7542 37.3731 28.375C38.0199 27.9958 38.6667 27.6708 39.3134 27.4L40.607 17H58.393L59.6866 27.4C60.3872 27.6708 61.048 27.9958 61.6689 28.375C62.2876 28.7542 62.8935 29.1604 63.4863 29.5938L73.107 25.5312L82 40.9688L73.6729 47.3062C73.7268 47.6854 73.7537 48.0505 73.7537 48.4015V50.5952C73.7537 50.9484 73.6998 51.3146 73.592 51.6938L81.9192 58.0312L73.0261 73.4688L63.4863 69.4062C62.8935 69.8396 62.2736 70.2458 61.6269 70.625C60.9801 71.0042 60.3333 71.3292 59.6866 71.6L58.393 82H40.607ZM49.6617 60.875C52.7877 60.875 55.4556 59.7646 57.6654 57.5438C59.8752 55.3229 60.9801 52.6417 60.9801 49.5C60.9801 46.3583 59.8752 43.6771 57.6654 41.4562C55.4556 39.2354 52.7877 38.125 49.6617 38.125C46.4818 38.125 43.7998 39.2354 41.6159 41.4562C39.4342 43.6771 38.3433 46.3583 38.3433 49.5C38.3433 52.6417 39.4342 55.3229 41.6159 57.5438C43.7998 59.7646 46.4818 60.875 49.6617 60.875ZM49.6617 54.375C48.3143 54.375 47.1695 53.9005 46.2274 52.9515C45.2831 52.0047 44.8109 50.8542 44.8109 49.5C44.8109 48.1458 45.2831 46.9953 46.2274 46.0485C47.1695 45.0995 48.3143 44.625 49.6617 44.625C51.0091 44.625 52.155 45.0995 53.0993 46.0485C54.0414 46.9953 54.5124 48.1458 54.5124 49.5C54.5124 50.8542 54.0414 52.0047 53.0993 52.9515C52.155 53.9005 51.0091 54.375 49.6617 54.375ZM46.2662 75.5H52.653L53.7848 66.8875C55.4556 66.4542 57.0057 65.8172 58.4351 64.9765C59.8623 64.138 61.1687 63.1229 62.3545 61.9312L70.3582 65.2625L73.5112 59.7375L66.5585 54.4562C66.8279 53.6979 67.0166 52.8984 67.1244 52.0578C67.2322 51.2192 67.2861 50.3667 67.2861 49.5C67.2861 48.6333 67.2322 47.7797 67.1244 46.939C67.0166 46.1005 66.8279 45.3021 66.5585 44.5438L73.5112 39.2625L70.3582 33.7375L62.3545 37.15C61.1687 35.9042 59.8623 34.8609 58.4351 34.0203C57.0057 33.1817 55.4556 32.5458 53.7848 32.1125L52.7338 23.5H46.347L45.2152 32.1125C43.5444 32.5458 41.9954 33.1817 40.5682 34.0203C39.1388 34.8609 37.8313 35.8771 36.6455 37.0688L28.6418 33.7375L25.4888 39.2625L32.4415 44.4625C32.1721 45.275 31.9834 46.0875 31.8756 46.9C31.7678 47.7125 31.7139 48.5792 31.7139 49.5C31.7139 50.3667 31.7678 51.2062 31.8756 52.0187C31.9834 52.8312 32.1721 53.6437 32.4415 54.4562L25.4888 59.7375L28.6418 65.2625L36.6455 61.85C37.8313 63.0958 39.1388 64.138 40.5682 64.9765C41.9954 65.8172 43.5444 66.4542 45.2152 66.8875L46.2662 75.5Z" fill="white"/>
</svg>
