<svg width="99" height="99" viewBox="0 0 99 99" fill="none" xmlns="http://www.w3.org/2000/svg">
<circle cx="49.5" cy="49.5" r="49.5" fill="#1929FF"/>
<path d="M44.8571 82C40.9881 82 37.3646 81.2417 33.9867 79.725C30.6067 78.2083 27.6528 76.1229 25.125 73.4687C22.5972 70.8146 20.6111 67.713 19.1667 64.164C17.7222 60.6172 17 56.8125 17 52.75C17 48.6875 17.7222 44.8818 19.1667 41.3328C20.6111 37.7859 22.5972 34.6854 25.125 32.0312C27.6528 29.3771 30.6067 27.2917 33.9867 25.775C37.3646 24.2583 40.9881 23.5 44.8571 23.5C45.9405 23.5 46.9846 23.5672 47.9895 23.7015C48.9965 23.838 50.0159 24.0417 51.0476 24.3125V30.975C50.0159 30.65 48.9965 30.4062 47.9895 30.2437C46.9846 30.0812 45.9405 30 44.8571 30C38.7698 30 33.6369 32.1937 29.4583 36.5812C25.2798 40.9688 23.1905 46.3583 23.1905 52.75C23.1905 59.1417 25.2798 64.5312 29.4583 68.9188C33.6369 73.3063 38.7698 75.5 44.8571 75.5C50.9444 75.5 56.0774 73.3063 60.256 68.9188C64.4345 64.5312 66.5238 59.1417 66.5238 52.75C66.5238 52.1542 66.498 51.6125 66.4464 51.125C66.3948 50.6375 66.3175 50.0958 66.2143 49.5H72.5595C72.6627 50.0958 72.7143 50.6375 72.7143 51.125V52.75C72.7143 56.8125 71.9921 60.6172 70.5476 64.164C69.1032 67.713 67.1171 70.8146 64.5893 73.4687C62.0615 76.1229 59.1087 78.2083 55.7307 79.725C52.3507 81.2417 48.7262 82 44.8571 82ZM53.5238 66.4L41.7619 54.05V36.5H47.9524V51.45L57.8571 61.85L53.5238 66.4ZM66.5238 43V33.25H57.2381V26.75H66.5238V17H72.7143V26.75H82V33.25H72.7143V43H66.5238Z" fill="white"/>
</svg>
