<svg width="30" height="30" viewBox="0 0 30 30" fill="none" xmlns="http://www.w3.org/2000/svg">
<path d="M25.5 24C26.325 24 27 24.675 27 25.5C27 26.325 26.325 27 25.5 27H4.5C3.675 27 3 26.325 3 25.5C3 24.675 3.675 24 4.5 24H25.5ZM25.5 21H4.5C2.019 21 0 23.019 0 25.5C0 27.981 2.019 30 4.5 30H25.5C27.981 30 30 27.981 30 25.5C30 23.019 27.981 21 25.5 21ZM25.5 13.5C26.325 13.5 27 14.175 27 15C27 15.825 26.325 16.5 25.5 16.5H4.5C3.675 16.5 3 15.825 3 15C3 14.175 3.675 13.5 4.5 13.5H25.5ZM25.5 10.5H4.5C2.019 10.5 0 12.519 0 15C0 17.481 2.019 19.5 4.5 19.5H25.5C27.981 19.5 30 17.481 30 15C30 12.519 27.981 10.5 25.5 10.5ZM25.5 3C26.325 3 27 3.675 27 4.5C27 5.325 26.325 6 25.5 6H4.5C3.675 6 3 5.325 3 4.5C3 3.675 3.675 3 4.5 3H25.5ZM25.5 0H4.5C2.019 0 0 2.019 0 4.5C0 6.981 2.019 9 4.5 9H25.5C27.981 9 30 6.981 30 4.5C30 2.019 27.981 0 25.5 0Z" fill="white"/>
</svg>
