<svg width="20" height="20" viewBox="0 0 20 20" fill="none" xmlns="http://www.w3.org/2000/svg">
<path d="M7.9075 0.0025001L8.515 0H11.485L12.0933 0.0025001L12.855 0.0108338L13.2158 0.0166674L13.5642 0.0258344L13.9 0.0375016L14.2233 0.0508355L14.535 0.0683362L14.835 0.0891704L15.1225 0.114171L15.4 0.141673C16.85 0.305013 17.8442 0.655027 18.5942 1.40506C19.3442 2.15509 19.6942 3.14846 19.8575 4.59936L19.8858 4.87687L19.91 5.16522L19.9308 5.46523L19.9475 5.77607L19.9683 6.26609L19.9783 6.60778L19.9892 7.14446L19.9967 7.907L20 8.7237L19.9992 11.4846L19.9967 12.093L19.9883 12.8547L19.9825 13.2156L19.9733 13.5639L19.9617 13.8997L19.9483 14.2231L19.9308 14.5348L19.91 14.8348L19.885 15.1223L19.8575 15.3998C19.6942 16.8499 19.3442 17.8441 18.5942 18.5941C17.8442 19.3441 16.8508 19.6942 15.4 19.8575L15.1225 19.8858L14.8342 19.91L14.5342 19.9308L14.2233 19.9475L13.7333 19.9683L13.3917 19.9783L12.855 19.9892L12.0925 19.9967L11.2758 20L8.515 19.9992L7.90667 19.9967L7.145 19.9883L6.78417 19.9825L6.43583 19.9733L6.1 19.9617L5.77667 19.9483L5.465 19.9308L5.165 19.91L4.8775 19.885L4.6 19.8575C3.15 19.6942 2.15583 19.3441 1.40583 18.5941C0.655833 17.8441 0.305833 16.8507 0.1425 15.3998L0.114167 15.1223L0.09 14.834L0.0691667 14.5339L0.0525 14.2231L0.0316667 13.7331L0.0216667 13.3914L0.0108333 12.8547L0.00333333 12.0922L0 11.2755L0.000833333 8.51452L0.00333333 7.90616L0.0116667 7.14446L0.0175 6.78362L0.0266667 6.43527L0.0383333 6.09942L0.0516667 5.77607L0.0691667 5.46439L0.09 5.16438L0.115 4.87687L0.1425 4.59936C0.305833 3.1493 0.655833 2.15509 1.40583 1.40506C2.15583 0.655027 3.14917 0.305013 4.6 0.141673L4.8775 0.113338L5.16583 0.0891704L5.46583 0.0683362L5.77667 0.0516688L6.26667 0.0308346L6.60833 0.0208342L7.145 0.0100004L7.9075 0.0025001ZM5.65833 6.08275H3.375C3.48333 11.283 6.08333 14.4081 10.6417 14.4081H10.9V11.433C12.575 11.5997 13.8417 12.8247 14.35 14.4081H16.7167C16.0667 12.0413 14.3583 10.7329 13.2917 10.2329C14.3583 9.61623 15.8583 8.11617 16.2167 6.08275H14.0667C13.6 7.73282 12.2167 9.23288 10.9 9.37456V6.08275H8.75V11.8497C7.41667 11.5163 5.73333 9.89958 5.65833 6.08275Z" fill="white"/>
</svg>
