<svg width="25" height="20" viewBox="0 0 25 20" fill="none" xmlns="http://www.w3.org/2000/svg">
<path fill-rule="evenodd" clip-rule="evenodd" d="M9.91875 13.6897V5.69885L16.6725 9.70852L9.91875 13.6897ZM24.75 4.31537C24.75 4.31537 24.5062 2.35461 23.7562 1.49154C22.8062 0.359732 21.74 0.354045 21.2512 0.287218C17.7537 1.90687e-07 12.505 0 12.505 0H12.495C12.495 0 7.2475 1.90687e-07 3.74875 0.287218C3.26 0.354045 2.195 0.358311 1.24375 1.49154C0.49375 2.35461 0.25 4.31537 0.25 4.31537C0.25 4.31537 0 6.61595 0 8.91796V11.0749C0 13.3755 0.25 15.6775 0.25 15.6775C0.25 15.6775 0.49375 17.6369 1.24375 18.4999C2.19375 19.6332 3.44375 19.5962 4 19.7156C6 19.9332 12.5 20 12.5 20C12.5 20 17.7537 19.9915 21.2512 19.7043C21.74 19.6374 22.8062 19.6332 23.7562 18.4999C24.5062 17.6369 24.75 15.6775 24.75 15.6775C24.75 15.6775 25 13.3755 25 11.0749V8.91796C25 6.61595 24.75 4.31537 24.75 4.31537Z" fill="white"/>
</svg>
